<svg width="80" height="43" viewBox="0 0 80 43" fill="none" xmlns="http://www.w3.org/2000/svg">
<path d="M12.3992 13.3306H12.402C14.4004 13.3306 15.9982 14.906 15.9982 16.8223V16.8249C15.9982 18.7412 14.4004 20.3167 12.402 20.3167H12.3992C10.4008 20.3167 8.80298 18.7412 8.80298 16.8249V16.8223C8.80298 14.906 10.4008 13.3306 12.3992 13.3306Z" fill="#AFB1B8" stroke="#AFB1B8"/>
<path d="M19.8671 27.8073C19.6997 27.8327 19.5512 27.8541 19.4233 27.872V11.555C19.4296 8.62871 20.6253 5.82136 22.753 3.74834C24.8811 1.67501 27.7681 0.505592 30.7826 0.500001C33.7963 0.506926 36.6819 1.67693 38.8089 3.75012C40.9356 5.82311 42.1306 8.62991 42.1368 11.5555V11.557C42.1368 11.5571 42.1368 11.5571 42.1368 11.5571C42.1354 18.3802 36.4877 22.4822 30.5892 24.9022C27.6625 26.1029 24.7301 26.8641 22.5258 27.3251C21.4247 27.5553 20.5077 27.7102 19.8671 27.8073Z" fill="#AFB1B8" stroke="#AFB1B8"/>
<path d="M7.74917 36.541C7.4036 36.4762 7.07255 36.3446 6.7762 36.1517C6.33896 35.8669 5.9962 35.4609 5.79325 34.9835C5.59024 34.5059 5.53691 33.9795 5.64058 33.4716C5.74424 32.9638 5.99975 32.4991 6.37272 32.1356C6.74555 31.7723 7.21901 31.5263 7.73258 31.4267C8.2461 31.3272 8.77851 31.3782 9.26299 31.5737C9.74758 31.7693 10.1638 32.1014 10.4577 32.53C10.7516 32.9587 10.9094 33.4641 10.9094 33.9823M7.74917 36.541V36.5953L8.24916 36.5953C8.59757 36.5953 8.94285 36.5283 9.26529 36.3978C9.58776 36.2673 9.88143 36.0757 10.1292 35.8334C10.3769 35.591 10.5738 35.3027 10.708 34.9846C10.8419 34.667 10.9104 34.3264 10.9094 33.9823M7.74917 36.541C7.91328 36.5718 8.08067 36.5874 8.24917 36.5874V36.0953L7.74917 36.541ZM10.9094 33.9823H10.4095L10.9094 33.9804C10.9094 33.981 10.9094 33.9816 10.9094 33.9823ZM13.7262 39.3044C12.2752 40.7184 10.3065 41.5177 8.24917 41.5239C6.1914 41.5177 4.22227 40.718 2.77123 39.3035C1.32046 37.8892 0.505453 35.9757 0.499939 33.9816C0.500308 29.3364 4.34401 26.5187 8.43896 24.8385C10.464 24.0076 12.4948 23.4802 14.0229 23.1605C14.7859 23.0009 15.4211 22.8936 15.8645 22.8264C15.9113 22.8193 15.956 22.8126 15.9984 22.8064V33.984C15.9922 35.9777 15.1769 37.8906 13.7262 39.3044Z" fill="#AFB1B8" stroke="#AFB1B8"/>
<path d="M25.0891 34.7812H23.4016V36.5244H22.5227V32.2588H25.3V32.9707H23.4016V34.0723H25.0891V34.7812ZM29.3137 34.4883C29.3137 34.9082 29.2395 35.2764 29.0911 35.5928C28.9426 35.9092 28.7297 36.1533 28.4524 36.3252C28.177 36.4971 27.8606 36.583 27.5032 36.583C27.1497 36.583 26.8342 36.498 26.5569 36.3281C26.2795 36.1582 26.0647 35.916 25.9124 35.6016C25.76 35.2852 25.6829 34.9219 25.6809 34.5117V34.3008C25.6809 33.8809 25.7561 33.5117 25.9065 33.1934C26.0588 32.873 26.2727 32.6279 26.5481 32.458C26.8254 32.2861 27.1418 32.2002 27.4973 32.2002C27.8528 32.2002 28.1682 32.2861 28.4436 32.458C28.7209 32.6279 28.9348 32.873 29.0852 33.1934C29.2375 33.5117 29.3137 33.8799 29.3137 34.2979V34.4883ZM28.4231 34.2949C28.4231 33.8477 28.343 33.5078 28.1829 33.2754C28.0227 33.043 27.7942 32.9268 27.4973 32.9268C27.2024 32.9268 26.9749 33.042 26.8147 33.2725C26.6545 33.501 26.5735 33.8369 26.5715 34.2803V34.4883C26.5715 34.9238 26.6516 35.2617 26.8118 35.502C26.9719 35.7422 27.2024 35.8623 27.5032 35.8623C27.7981 35.8623 28.0247 35.7471 28.1829 35.5166C28.3411 35.2842 28.4211 34.9463 28.4231 34.5029V34.2949ZM32.1643 35.4053C32.1643 35.2393 32.1057 35.1123 31.9885 35.0244C31.8713 34.9346 31.6604 34.8408 31.3557 34.7432C31.051 34.6436 30.8098 34.5459 30.6321 34.4502C30.1477 34.1885 29.9055 33.8359 29.9055 33.3926C29.9055 33.1621 29.97 32.957 30.0989 32.7773C30.2297 32.5957 30.4163 32.4541 30.6584 32.3525C30.9026 32.251 31.176 32.2002 31.4788 32.2002C31.7834 32.2002 32.0549 32.2559 32.2932 32.3672C32.5315 32.4766 32.7161 32.6318 32.8469 32.833C32.9797 33.0342 33.0461 33.2627 33.0461 33.5186H32.1672C32.1672 33.3232 32.1057 33.1719 31.9827 33.0645C31.8596 32.9551 31.6868 32.9004 31.4641 32.9004C31.2493 32.9004 31.0823 32.9463 30.9631 33.0381C30.844 33.1279 30.7844 33.2471 30.7844 33.3955C30.7844 33.5342 30.8538 33.6504 30.9924 33.7441C31.1331 33.8379 31.3391 33.9258 31.6106 34.0078C32.1106 34.1582 32.4749 34.3447 32.7034 34.5674C32.9319 34.79 33.0461 35.0674 33.0461 35.3994C33.0461 35.7686 32.9065 36.0586 32.6272 36.2695C32.3479 36.4785 31.9719 36.583 31.4993 36.583C31.1711 36.583 30.8723 36.5234 30.6028 36.4043C30.3333 36.2832 30.1272 36.1182 29.9846 35.9092C29.844 35.7002 29.7737 35.458 29.7737 35.1826H30.6555C30.6555 35.6533 30.9368 35.8887 31.4993 35.8887C31.7083 35.8887 31.8713 35.8467 31.9885 35.7627C32.1057 35.6768 32.1643 35.5576 32.1643 35.4053ZM36.8547 32.9707H35.5481V36.5244H34.6692V32.9707H33.3801V32.2588H36.8547V32.9707ZM39.925 34.6758H38.2375V35.8184H40.218V36.5244H37.3586V32.2588H40.2122V32.9707H38.2375V33.9873H39.925V34.6758ZM42.3127 34.9629H41.6125V36.5244H40.7336V32.2588H42.3186C42.8225 32.2588 43.2112 32.3711 43.4846 32.5957C43.7581 32.8203 43.8948 33.1377 43.8948 33.5479C43.8948 33.8389 43.8313 34.082 43.7043 34.2773C43.5793 34.4707 43.3889 34.625 43.1331 34.7402L44.0559 36.4834V36.5244H43.1125L42.3127 34.9629ZM41.6125 34.251H42.3215C42.5422 34.251 42.7131 34.1953 42.8342 34.084C42.9553 33.9707 43.0159 33.8154 43.0159 33.6182C43.0159 33.417 42.9583 33.2588 42.843 33.1436C42.7297 33.0283 42.5549 32.9707 42.3186 32.9707H41.6125V34.251ZM46.9387 35.0215V36.5244H46.0598V32.2588H47.7239C48.0442 32.2588 48.3254 32.3174 48.5676 32.4346C48.8118 32.5518 48.9993 32.7188 49.1301 32.9355C49.261 33.1504 49.3264 33.3955 49.3264 33.6709C49.3264 34.0889 49.1829 34.4189 48.8958 34.6611C48.6106 34.9014 48.2151 35.0215 47.7092 35.0215H46.9387ZM46.9387 34.3096H47.7239C47.9563 34.3096 48.1331 34.2549 48.2542 34.1455C48.3772 34.0361 48.4387 33.8799 48.4387 33.6768C48.4387 33.4678 48.3772 33.2988 48.2542 33.1699C48.1311 33.041 47.9612 32.9746 47.7444 32.9707H46.9387V34.3096ZM52.4993 34.6758H50.8118V35.8184H52.7922V36.5244H49.9329V32.2588H52.7864V32.9707H50.8118V33.9873H52.4993V34.6758ZM56.5774 32.9707H55.2708V36.5244H54.3918V32.9707H53.1028V32.2588H56.5774V32.9707ZM59.6477 34.6758H57.9602V35.8184H59.9407V36.5244H57.0813V32.2588H59.9348V32.9707H57.9602V33.9873H59.6477V34.6758ZM62.0354 34.9629H61.3352V36.5244H60.4563V32.2588H62.0413C62.5452 32.2588 62.9338 32.3711 63.2073 32.5957C63.4807 32.8203 63.6174 33.1377 63.6174 33.5479C63.6174 33.8389 63.554 34.082 63.427 34.2773C63.302 34.4707 63.1116 34.625 62.8557 34.7402L63.7786 36.4834V36.5244H62.8352L62.0354 34.9629ZM61.3352 34.251H62.0442C62.2649 34.251 62.4358 34.1953 62.5569 34.084C62.678 33.9707 62.7385 33.8154 62.7385 33.6182C62.7385 33.417 62.6809 33.2588 62.5657 33.1436C62.4524 33.0283 62.2776 32.9707 62.0413 32.9707H61.3352V34.251ZM66.5002 35.4053C66.5002 35.2393 66.4417 35.1123 66.3245 35.0244C66.2073 34.9346 65.9963 34.8408 65.6917 34.7432C65.387 34.6436 65.1458 34.5459 64.968 34.4502C64.4836 34.1885 64.2415 33.8359 64.2415 33.3926C64.2415 33.1621 64.3059 32.957 64.4348 32.7773C64.5657 32.5957 64.7522 32.4541 64.9944 32.3525C65.2385 32.251 65.512 32.2002 65.8147 32.2002C66.1194 32.2002 66.3909 32.2559 66.6292 32.3672C66.8674 32.4766 67.052 32.6318 67.1829 32.833C67.3157 33.0342 67.3821 33.2627 67.3821 33.5186H66.5032C66.5032 33.3232 66.4417 33.1719 66.3186 33.0645C66.1956 32.9551 66.0227 32.9004 65.8 32.9004C65.5852 32.9004 65.4182 32.9463 65.2991 33.0381C65.1799 33.1279 65.1204 33.2471 65.1204 33.3955C65.1204 33.5342 65.1897 33.6504 65.3284 33.7441C65.469 33.8379 65.675 33.9258 65.9465 34.0078C66.4465 34.1582 66.8108 34.3447 67.0393 34.5674C67.2678 34.79 67.3821 35.0674 67.3821 35.3994C67.3821 35.7686 67.2424 36.0586 66.9631 36.2695C66.6838 36.4785 66.3079 36.583 65.8352 36.583C65.5071 36.583 65.2083 36.5234 64.9387 36.4043C64.6692 36.2832 64.4631 36.1182 64.3206 35.9092C64.1799 35.7002 64.1096 35.458 64.1096 35.1826H64.9915C64.9915 35.6533 65.2727 35.8887 65.8352 35.8887C66.0442 35.8887 66.2073 35.8467 66.3245 35.7627C66.4417 35.6768 66.5002 35.5576 66.5002 35.4053Z" fill="#AFB1B8"/>
<path d="M25.0891 34.7812V35.7812H26.0891V34.7812H25.0891ZM23.4016 34.7812V33.7812H22.4016V34.7812H23.4016ZM23.4016 36.5244V37.5244H24.4016V36.5244H23.4016ZM22.5227 36.5244H21.5227V37.5244H22.5227V36.5244ZM22.5227 32.2588V31.2588H21.5227V32.2588H22.5227ZM25.3 32.2588H26.3V31.2588H25.3V32.2588ZM25.3 32.9707V33.9707H26.3V32.9707H25.3ZM23.4016 32.9707V31.9707H22.4016V32.9707H23.4016ZM23.4016 34.0723H22.4016V35.0723H23.4016V34.0723ZM25.0891 34.0723H26.0891V33.0723H25.0891V34.0723ZM25.0891 33.7812H23.4016V35.7812H25.0891V33.7812ZM22.4016 34.7812V36.5244H24.4016V34.7812H22.4016ZM23.4016 35.5244H22.5227V37.5244H23.4016V35.5244ZM23.5227 36.5244V32.2588H21.5227V36.5244H23.5227ZM22.5227 33.2588H25.3V31.2588H22.5227V33.2588ZM24.3 32.2588V32.9707H26.3V32.2588H24.3ZM25.3 31.9707H23.4016V33.9707H25.3V31.9707ZM22.4016 32.9707V34.0723H24.4016V32.9707H22.4016ZM23.4016 35.0723H25.0891V33.0723H23.4016V35.0723ZM24.0891 34.0723V34.7812H26.0891V34.0723H24.0891ZM28.4524 36.3252L27.9256 35.4752L27.9229 35.4769L28.4524 36.3252ZM25.9124 35.6016L25.0113 36.0354L25.0124 36.0376L25.9124 35.6016ZM25.6809 34.5117L24.6809 34.5117L24.6809 34.5165L25.6809 34.5117ZM25.9065 33.1934L25.0034 32.7639L25.0023 32.7662L25.9065 33.1934ZM26.5481 32.458L27.0732 33.309L27.0749 33.308L26.5481 32.458ZM28.4436 32.458L27.9141 33.3064L27.9212 33.3107L28.4436 32.458ZM29.0852 33.1934L28.18 33.6184L28.1832 33.625L29.0852 33.1934ZM26.8147 33.2725L27.6336 33.8464L27.6359 33.8431L26.8147 33.2725ZM26.5715 34.2803L25.5715 34.2759V34.2803H26.5715ZM28.1829 35.5166L29.0073 36.0825L29.0095 36.0793L28.1829 35.5166ZM28.4231 34.5029L29.4231 34.5073V34.5029H28.4231ZM28.3137 34.4883C28.3137 34.7905 28.2605 35.0086 28.1857 35.1681L29.9964 36.0175C30.2185 35.5441 30.3137 35.0259 30.3137 34.4883H28.3137ZM28.1857 35.1681C28.1135 35.3221 28.0264 35.4127 27.9256 35.4752L28.9792 37.1752C29.4331 36.8939 29.7718 36.4963 29.9964 36.0175L28.1857 35.1681ZM27.9229 35.4769C27.8222 35.5397 27.693 35.583 27.5032 35.583V37.583C28.0282 37.583 28.5318 37.4544 28.9819 37.1735L27.9229 35.4769ZM27.5032 35.583C27.3175 35.583 27.1858 35.5407 27.0793 35.4754L26.0345 37.1808C26.4826 37.4554 26.9819 37.583 27.5032 37.583V35.583ZM27.0793 35.4754C26.9773 35.4129 26.8877 35.3212 26.8123 35.1656L25.0124 36.0376C25.2417 36.5108 25.5818 36.9035 26.0345 37.1808L27.0793 35.4754ZM26.8134 35.1677C26.7354 35.0059 26.6823 34.7933 26.6809 34.507L24.6809 34.5165C24.6835 35.0504 24.7846 35.5644 25.0114 36.0354L26.8134 35.1677ZM26.6809 34.5117V34.3008H24.6809V34.5117H26.6809ZM26.6809 34.3008C26.6809 34.0005 26.7344 33.782 26.8107 33.6205L25.0023 32.7662C24.7778 33.2414 24.6809 33.7613 24.6809 34.3008H26.6809ZM26.8096 33.6229C26.8874 33.4592 26.9774 33.3681 27.0732 33.309L26.023 31.607C25.568 31.8877 25.2303 32.2869 25.0034 32.7639L26.8096 33.6229ZM27.0749 33.308C27.1799 33.2429 27.3107 33.2002 27.4973 33.2002V31.2002C26.973 31.2002 26.4709 31.3294 26.0213 31.608L27.0749 33.308ZM27.4973 33.2002C27.684 33.2002 27.8125 33.2429 27.9141 33.3063L28.9731 31.6097C28.5239 31.3294 28.0216 31.2002 27.4973 31.2002V33.2002ZM27.9212 33.3107C28.0172 33.3695 28.1051 33.4587 28.18 33.6184L29.9904 32.7684C29.7646 32.2874 29.4247 31.8863 28.966 31.6053L27.9212 33.3107ZM28.1832 33.625C28.2602 33.786 28.3137 34.002 28.3137 34.2979H30.3137C30.3137 33.7578 30.2149 33.2374 29.9872 32.7617L28.1832 33.625ZM28.3137 34.2979V34.4883H30.3137V34.2979H28.3137ZM29.4231 34.2949C29.4231 33.7541 29.3308 33.1789 29.0063 32.708L27.3594 33.8428C27.3544 33.8355 27.3716 33.8573 27.3897 33.9339C27.4079 34.0111 27.4231 34.1281 27.4231 34.2949H29.4231ZM29.0063 32.708C28.6483 32.1885 28.1029 31.9268 27.4973 31.9268V33.9268C27.5131 33.9268 27.4849 33.9291 27.4381 33.9053C27.4162 33.8942 27.3972 33.8807 27.3822 33.8673C27.3675 33.8541 27.3605 33.8444 27.3594 33.8428L29.0063 32.708ZM27.4973 31.9268C26.8946 31.9268 26.3516 32.1866 25.9935 32.7018L27.6359 33.8431C27.6347 33.8448 27.6276 33.8545 27.613 33.8676C27.598 33.8809 27.5791 33.8943 27.5573 33.9053C27.5106 33.9289 27.4823 33.9268 27.4973 33.9268V31.9268ZM25.9958 32.6985C25.6681 33.166 25.5739 33.7392 25.5715 34.2759L27.5715 34.2847C27.5722 34.1199 27.5878 34.0052 27.6059 33.9303C27.6238 33.8561 27.6403 33.8369 27.6336 33.8464L25.9958 32.6985ZM25.5715 34.2803V34.4883H27.5715V34.2803H25.5715ZM25.5715 34.4883C25.5715 35.0273 25.6675 35.5883 25.9797 36.0567L27.6438 34.9473C27.6357 34.9351 27.5715 34.8204 27.5715 34.4883H25.5715ZM25.9797 36.0567C26.3344 36.5887 26.8848 36.8623 27.5032 36.8623V34.8623C27.4883 34.8623 27.5185 34.8602 27.5669 34.8854C27.5894 34.8971 27.6085 34.9111 27.6231 34.9246C27.6374 34.9377 27.6436 34.947 27.6438 34.9473L25.9797 36.0567ZM27.5032 36.8623C28.1061 36.8623 28.6507 36.602 29.0073 36.0825L27.3584 34.9507C27.3601 34.9482 27.3677 34.9378 27.3831 34.924C27.3987 34.9099 27.4184 34.896 27.4409 34.8845C27.489 34.8601 27.5184 34.8623 27.5032 34.8623V36.8623ZM29.0095 36.0793C29.3274 35.6123 29.4207 35.0441 29.4231 34.5073L27.4231 34.4985C27.4224 34.6639 27.4069 34.7805 27.3885 34.8583C27.3702 34.9355 27.3526 34.9591 27.3562 34.9539L29.0095 36.0793ZM29.4231 34.5029V34.2949H27.4231V34.5029H29.4231ZM31.9885 35.0244L31.3801 35.8181L31.3885 35.8244L31.9885 35.0244ZM31.3557 34.7432L31.045 35.6937L31.0505 35.6954L31.3557 34.7432ZM30.6321 34.4502L30.1567 35.33L30.158 35.3307L30.6321 34.4502ZM30.0989 32.7773L29.2875 32.1928L29.2863 32.1944L30.0989 32.7773ZM30.6584 32.3525L30.2744 31.4292L30.2717 31.4303L30.6584 32.3525ZM32.2932 32.3672L31.8699 33.2732L31.876 33.276L32.2932 32.3672ZM32.8469 32.833L32.0086 33.3783L32.0124 33.384L32.8469 32.833ZM33.0461 33.5186V34.5186H34.0461V33.5186H33.0461ZM32.1672 33.5186H31.1672V34.5186H32.1672V33.5186ZM31.9827 33.0645L31.3183 33.8119L31.325 33.8178L31.9827 33.0645ZM30.9631 33.0381L31.5653 33.8366L31.5735 33.8302L30.9631 33.0381ZM30.9924 33.7441L30.4323 34.5726L30.4377 34.5762L30.9924 33.7441ZM31.6106 34.0078L31.3214 34.9651L31.3226 34.9654L31.6106 34.0078ZM32.6272 36.2695L33.2263 37.0702L33.2299 37.0675L32.6272 36.2695ZM30.6028 36.4043L30.193 37.3165L30.1985 37.3189L30.6028 36.4043ZM29.9846 35.9092L29.1549 36.4675L29.1586 36.4728L29.9846 35.9092ZM29.7737 35.1826V34.1826H28.7737V35.1826H29.7737ZM30.6555 35.1826H31.6555V34.1826H30.6555V35.1826ZM31.9885 35.7627L32.5711 36.5756L32.5799 36.5691L31.9885 35.7627ZM33.1643 35.4053C33.1643 34.9725 32.9936 34.5282 32.5885 34.2244L31.3885 35.8244C31.321 35.7738 31.2559 35.6989 31.2124 35.6046C31.1708 35.5144 31.1643 35.4402 31.1643 35.4053H33.1643ZM32.597 34.2308C32.3326 34.0281 31.9776 33.8924 31.6609 33.7909L31.0505 35.6954C31.1806 35.7371 31.2736 35.7726 31.3363 35.8005C31.4053 35.8312 31.4086 35.8399 31.3801 35.818L32.597 34.2308ZM31.6665 33.7927C31.3895 33.7021 31.2105 33.6259 31.1062 33.5697L30.158 35.3307C30.4092 35.4659 30.7126 35.585 31.045 35.6937L31.6665 33.7927ZM31.1074 33.5704C30.9659 33.4939 30.9207 33.4367 30.9114 33.4233C30.9089 33.4197 30.908 33.4177 30.9078 33.4173C30.9076 33.417 30.9076 33.417 30.9076 33.417C30.9076 33.4169 30.9072 33.4155 30.9067 33.4121C30.9062 33.4087 30.9055 33.4024 30.9055 33.3926H28.9055C28.9055 34.2976 29.4415 34.9435 30.1567 35.33L31.1074 33.5704ZM30.9055 33.3926C30.9055 33.3817 30.9063 33.3746 30.9068 33.3709C30.9071 33.3689 30.9074 33.3676 30.9076 33.3669C30.9077 33.3662 30.9078 33.3658 30.9079 33.3657C30.9079 33.3657 30.9078 33.3658 30.9078 33.3659C30.9077 33.366 30.9077 33.3661 30.9078 33.3659C30.9079 33.3657 30.9088 33.3639 30.9114 33.3603L29.2863 32.1944C29.0302 32.5515 28.9055 32.9624 28.9055 33.3926H30.9055ZM30.9102 33.3619C30.9159 33.354 30.9431 33.3175 31.0452 33.2747L30.2717 31.4303C29.8894 31.5907 29.5435 31.8374 29.2875 32.1928L30.9102 33.3619ZM31.0425 33.2758C31.1486 33.2317 31.2889 33.2002 31.4788 33.2002V31.2002C31.0632 31.2002 30.6566 31.2702 30.2744 31.4292L31.0425 33.2758ZM31.4788 33.2002C31.6603 33.2002 31.7836 33.2328 31.8699 33.2732L32.7165 31.4612C32.3263 31.2789 31.9066 31.2002 31.4788 31.2002V33.2002ZM31.876 33.276C31.9589 33.3141 31.9904 33.3502 32.0087 33.3783L33.6852 32.2877C33.4417 31.9134 33.1041 31.6391 32.7104 31.4584L31.876 33.276ZM32.0124 33.384C32.0305 33.4114 32.0461 33.446 32.0461 33.5186H34.0461C34.0461 33.0794 33.929 32.6569 33.6815 32.2821L32.0124 33.384ZM33.0461 32.5186H32.1672V34.5186H33.0461V32.5186ZM33.1672 33.5186C33.1672 33.0964 33.0236 32.6457 32.6403 32.3111L31.325 33.8178C31.2687 33.7686 31.2228 33.7042 31.1947 33.6351C31.1683 33.5703 31.1672 33.5253 31.1672 33.5186H33.1672ZM32.647 32.317C32.2848 31.9951 31.8445 31.9004 31.4641 31.9004V33.9004C31.4955 33.9004 31.4895 33.9045 31.4591 33.8948C31.4252 33.8841 31.3721 33.8597 31.3183 33.8119L32.647 32.317ZM31.4641 31.9004C31.1204 31.9004 30.7079 31.9724 30.3528 32.2459L31.5735 33.8302C31.5158 33.8746 31.4657 33.8928 31.4428 33.8991C31.4221 33.9047 31.4257 33.9004 31.4641 33.9004V31.9004ZM30.361 32.2397C29.9929 32.5173 29.7844 32.9313 29.7844 33.3955H31.7844C31.7844 33.4586 31.7708 33.5475 31.7235 33.642C31.6764 33.7364 31.6139 33.7998 31.5652 33.8365L30.361 32.2397ZM29.7844 33.3955C29.7844 33.9378 30.0837 34.3369 30.4324 34.5726L31.5525 32.9157C31.5766 32.932 31.639 32.9802 31.6952 33.0743C31.7553 33.1751 31.7844 33.2891 31.7844 33.3955H29.7844ZM30.4377 34.5762C30.697 34.749 31.0103 34.8711 31.3214 34.9651L31.8998 33.0506C31.668 32.9805 31.5691 32.9268 31.5471 32.9121L30.4377 34.5762ZM31.3226 34.9654C31.7554 35.0956 31.9432 35.2229 32.0055 35.2836L33.4012 33.8512C33.0065 33.4665 32.4657 33.2208 31.8986 33.0502L31.3226 34.9654ZM32.0055 35.2836C32.0284 35.3059 32.0339 35.3186 32.0358 35.3233C32.0381 35.3288 32.0461 35.3501 32.0461 35.3994H34.0461C34.0461 34.81 33.8316 34.2704 33.4012 33.8512L32.0055 35.2836ZM32.0461 35.3994C32.0461 35.4286 32.0434 35.4461 32.0417 35.4542C32.04 35.4619 32.039 35.4629 32.0404 35.46C32.0419 35.4569 32.0435 35.4549 32.0434 35.455C32.0431 35.4554 32.0381 35.4613 32.0245 35.4715L33.2299 37.0675C33.7749 36.6559 34.0461 36.0621 34.0461 35.3994H32.0461ZM32.0281 35.4689C31.9738 35.5095 31.8316 35.583 31.4993 35.583V37.583C32.1122 37.583 32.722 37.4476 33.2263 37.0702L32.0281 35.4689ZM31.4993 35.583C31.2945 35.583 31.1355 35.5464 31.0071 35.4897L30.1985 37.3189C30.6091 37.5004 31.0478 37.583 31.4993 37.583V35.583ZM31.0126 35.4921C30.8826 35.4337 30.8329 35.3782 30.8107 35.3456L29.1586 36.4728C29.4215 36.8581 29.7839 37.1327 30.193 37.3165L31.0126 35.4921ZM30.8143 35.3509C30.795 35.3223 30.7737 35.2785 30.7737 35.1826H28.7737C28.7737 35.6375 28.893 36.0781 29.155 36.4675L30.8143 35.3509ZM29.7737 36.1826H30.6555V34.1826H29.7737V36.1826ZM29.6555 35.1826C29.6555 35.6235 29.7957 36.1201 30.2247 36.4791C30.6195 36.8095 31.103 36.8887 31.4993 36.8887V34.8887C31.4251 34.8887 31.3961 34.8806 31.3988 34.8813C31.404 34.8828 31.4504 34.8969 31.5082 34.9452C31.5698 34.9968 31.6134 35.0614 31.6373 35.1215C31.6587 35.1754 31.6555 35.2028 31.6555 35.1826H29.6555ZM31.4993 36.8887C31.8272 36.8887 32.2231 36.8248 32.571 36.5755L31.406 34.9499C31.4633 34.9088 31.5106 34.8935 31.529 34.8888C31.5457 34.8845 31.5389 34.8887 31.4993 34.8887V36.8887ZM32.5799 36.5691C32.9682 36.2843 33.1643 35.8581 33.1643 35.4053H31.1643C31.1643 35.351 31.1755 35.2643 31.223 35.1676C31.2714 35.0692 31.3384 34.9994 31.3972 34.9563L32.5799 36.5691ZM36.8547 32.9707V33.9707H37.8547V32.9707H36.8547ZM35.5481 32.9707V31.9707H34.5481V32.9707H35.5481ZM35.5481 36.5244V37.5244H36.5481V36.5244H35.5481ZM34.6692 36.5244H33.6692V37.5244H34.6692V36.5244ZM34.6692 32.9707H35.6692V31.9707H34.6692V32.9707ZM33.3801 32.9707H32.3801V33.9707H33.3801V32.9707ZM33.3801 32.2588V31.2588H32.3801V32.2588H33.3801ZM36.8547 32.2588H37.8547V31.2588H36.8547V32.2588ZM36.8547 31.9707H35.5481V33.9707H36.8547V31.9707ZM34.5481 32.9707V36.5244H36.5481V32.9707H34.5481ZM35.5481 35.5244H34.6692V37.5244H35.5481V35.5244ZM35.6692 36.5244V32.9707H33.6692V36.5244H35.6692ZM34.6692 31.9707H33.3801V33.9707H34.6692V31.9707ZM34.3801 32.9707V32.2588H32.3801V32.9707H34.3801ZM33.3801 33.2588H36.8547V31.2588H33.3801V33.2588ZM35.8547 32.2588V32.9707H37.8547V32.2588H35.8547ZM39.925 34.6758V35.6758H40.925V34.6758H39.925ZM38.2375 34.6758V33.6758H37.2375V34.6758H38.2375ZM38.2375 35.8184H37.2375V36.8184H38.2375V35.8184ZM40.218 35.8184H41.218V34.8184H40.218V35.8184ZM40.218 36.5244V37.5244H41.218V36.5244H40.218ZM37.3586 36.5244H36.3586V37.5244H37.3586V36.5244ZM37.3586 32.2588V31.2588H36.3586V32.2588H37.3586ZM40.2122 32.2588H41.2122V31.2588H40.2122V32.2588ZM40.2122 32.9707V33.9707H41.2122V32.9707H40.2122ZM38.2375 32.9707V31.9707H37.2375V32.9707H38.2375ZM38.2375 33.9873H37.2375V34.9873H38.2375V33.9873ZM39.925 33.9873H40.925V32.9873H39.925V33.9873ZM39.925 33.6758H38.2375V35.6758H39.925V33.6758ZM37.2375 34.6758V35.8184H39.2375V34.6758H37.2375ZM38.2375 36.8184H40.218V34.8184H38.2375V36.8184ZM39.218 35.8184V36.5244H41.218V35.8184H39.218ZM40.218 35.5244H37.3586V37.5244H40.218V35.5244ZM38.3586 36.5244V32.2588H36.3586V36.5244H38.3586ZM37.3586 33.2588H40.2122V31.2588H37.3586V33.2588ZM39.2122 32.2588V32.9707H41.2122V32.2588H39.2122ZM40.2122 31.9707H38.2375V33.9707H40.2122V31.9707ZM37.2375 32.9707V33.9873H39.2375V32.9707H37.2375ZM38.2375 34.9873H39.925V32.9873H38.2375V34.9873ZM38.925 33.9873V34.6758H40.925V33.9873H38.925ZM42.3127 34.9629L43.2028 34.507L42.9241 33.9629H42.3127V34.9629ZM41.6125 34.9629V33.9629H40.6125V34.9629H41.6125ZM41.6125 36.5244V37.5244H42.6125V36.5244H41.6125ZM40.7336 36.5244H39.7336V37.5244H40.7336V36.5244ZM40.7336 32.2588V31.2588H39.7336V32.2588H40.7336ZM43.7043 34.2773L42.8659 33.7324L42.8645 33.7344L43.7043 34.2773ZM43.1331 34.7402L42.7224 33.8284L41.7506 34.2661L42.2493 35.2081L43.1331 34.7402ZM44.0559 36.4834H45.0559V36.235L44.9397 36.0155L44.0559 36.4834ZM44.0559 36.5244V37.5244H45.0559V36.5244H44.0559ZM43.1125 36.5244L42.2225 36.9803L42.5012 37.5244H43.1125V36.5244ZM41.6125 34.251H40.6125V35.251H41.6125V34.251ZM42.8342 34.084L43.5111 34.8202L43.5174 34.8143L42.8342 34.084ZM42.843 33.1436L42.1299 33.8446L42.1359 33.8507L42.843 33.1436ZM41.6125 32.9707V31.9707H40.6125V32.9707H41.6125ZM42.3127 33.9629H41.6125V35.9629H42.3127V33.9629ZM40.6125 34.9629V36.5244H42.6125V34.9629H40.6125ZM41.6125 35.5244H40.7336V37.5244H41.6125V35.5244ZM41.7336 36.5244V32.2588H39.7336V36.5244H41.7336ZM40.7336 33.2588H42.3186V31.2588H40.7336V33.2588ZM42.3186 33.2588C42.6873 33.2588 42.8178 33.3421 42.8499 33.3684L44.1194 31.823C43.6046 31.4001 42.9578 31.2588 42.3186 31.2588V33.2588ZM42.8499 33.3684C42.8664 33.382 42.8701 33.3893 42.8738 33.3978C42.8793 33.4105 42.8948 33.4538 42.8948 33.5479H44.8948C44.8948 32.8917 44.6622 32.2689 44.1194 31.823L42.8499 33.3684ZM42.8948 33.5479C42.8948 33.6212 42.8867 33.6686 42.8796 33.6959C42.8728 33.7219 42.8665 33.7314 42.8659 33.7324L44.5428 34.8223C44.7987 34.4286 44.8948 33.9841 44.8948 33.5479H42.8948ZM42.8645 33.7344C42.8629 33.7369 42.8568 33.7461 42.8382 33.7611C42.8187 33.7769 42.783 33.8012 42.7224 33.8284L43.5437 35.652C43.9365 35.4751 44.2937 35.2076 44.5441 34.8202L42.8645 33.7344ZM42.2493 35.2081L43.1721 36.9513L44.9397 36.0155L44.0168 34.2723L42.2493 35.2081ZM43.0559 36.4834V36.5244H45.0559V36.4834H43.0559ZM44.0559 35.5244H43.1125V37.5244H44.0559V35.5244ZM44.0026 36.0685L43.2028 34.507L41.4227 35.4188L42.2225 36.9803L44.0026 36.0685ZM41.6125 35.251H42.3215V33.251H41.6125V35.251ZM42.3215 35.251C42.7057 35.251 43.1499 35.1521 43.511 34.8202L42.1574 33.3478C42.2119 33.2977 42.2674 33.2708 42.3055 33.2584C42.3399 33.2472 42.3498 33.251 42.3215 33.251V35.251ZM43.5174 34.8143C43.8787 34.4762 44.0159 34.0353 44.0159 33.6182H42.0159C42.0159 33.6149 42.0164 33.5766 42.0388 33.5193C42.0626 33.4583 42.1018 33.3998 42.1511 33.3537L43.5174 34.8143ZM44.0159 33.6182C44.0159 33.2177 43.8949 32.7812 43.5501 32.4364L42.1359 33.8507C42.0869 33.8016 42.0525 33.7442 42.033 33.6908C42.015 33.6412 42.0159 33.6122 42.0159 33.6182H44.0159ZM43.5561 32.4425C43.1828 32.0627 42.699 31.9707 42.3186 31.9707V33.9707C42.359 33.9707 42.3515 33.9761 42.3139 33.9637C42.2712 33.9496 42.1996 33.9155 42.1299 33.8446L43.5561 32.4425ZM42.3186 31.9707H41.6125V33.9707H42.3186V31.9707ZM40.6125 32.9707V34.251H42.6125V32.9707H40.6125ZM46.9387 35.0215V34.0215H45.9387V35.0215H46.9387ZM46.9387 36.5244V37.5244H47.9387V36.5244H46.9387ZM46.0598 36.5244H45.0598V37.5244H46.0598V36.5244ZM46.0598 32.2588V31.2588H45.0598V32.2588H46.0598ZM48.5676 32.4346L48.1321 33.3347L48.1349 33.3361L48.5676 32.4346ZM49.1301 32.9355L48.274 33.4523L48.2761 33.4557L49.1301 32.9355ZM48.8958 34.6611L49.54 35.4259L49.5405 35.4255L48.8958 34.6611ZM46.9387 34.3096H45.9387V35.3096H46.9387V34.3096ZM48.2542 34.1455L47.5898 33.3981L47.5839 33.4034L48.2542 34.1455ZM47.7444 32.9707L47.7624 31.9709L47.7534 31.9707H47.7444V32.9707ZM46.9387 32.9707V31.9707H45.9387V32.9707H46.9387ZM45.9387 35.0215V36.5244H47.9387V35.0215H45.9387ZM46.9387 35.5244H46.0598V37.5244H46.9387V35.5244ZM47.0598 36.5244V32.2588H45.0598V36.5244H47.0598ZM46.0598 33.2588H47.7239V31.2588H46.0598V33.2588ZM47.7239 33.2588C47.9218 33.2588 48.0492 33.2946 48.1321 33.3347L49.0032 31.5344C48.6017 31.3402 48.1666 31.2588 47.7239 31.2588V33.2588ZM48.1349 33.3361C48.2162 33.3751 48.2509 33.414 48.274 33.4523L49.9863 32.4188C49.7477 32.0235 49.4073 31.7284 49.0004 31.533L48.1349 33.3361ZM48.2761 33.4557C48.3025 33.4992 48.3264 33.561 48.3264 33.6709H50.3264C50.3264 33.23 50.2194 32.8016 49.9842 32.4154L48.2761 33.4557ZM48.3264 33.6709C48.3264 33.8316 48.2857 33.8675 48.251 33.8968L49.5405 35.4255C50.08 34.9704 50.3264 34.3461 50.3264 33.6709H48.3264ZM48.2515 33.8964C48.202 33.938 48.0635 34.0215 47.7092 34.0215V36.0215C48.3666 36.0215 49.0192 35.8647 49.54 35.4259L48.2515 33.8964ZM47.7092 34.0215H46.9387V36.0215H47.7092V34.0215ZM46.9387 35.3096H47.7239V33.3096H46.9387V35.3096ZM47.7239 35.3096C48.0996 35.3096 48.5545 35.2217 48.9244 34.8876L47.5839 33.4034C47.6448 33.3483 47.7033 33.3231 47.7352 33.3132C47.7634 33.3045 47.7643 33.3096 47.7239 33.3096V35.3096ZM48.9185 34.8929C49.3037 34.5506 49.4387 34.0933 49.4387 33.6768H47.4387C47.4387 33.6785 47.4384 33.6401 47.4621 33.5799C47.4877 33.5149 47.5315 33.4499 47.5898 33.3981L48.9185 34.8929ZM49.4387 33.6768C49.4387 33.2581 49.3084 32.8261 48.9775 32.4794L47.5308 33.8604C47.4961 33.824 47.469 33.7796 47.4529 33.7355C47.4379 33.6941 47.4387 33.6704 47.4387 33.6768H49.4387ZM48.9775 32.4794C48.6314 32.1169 48.1844 31.9785 47.7624 31.9709L47.7264 33.9705C47.7381 33.9708 47.7145 33.972 47.6704 33.9548C47.6228 33.9362 47.5725 33.9041 47.5308 33.8604L48.9775 32.4794ZM47.7444 31.9707H46.9387V33.9707H47.7444V31.9707ZM45.9387 32.9707V34.3096H47.9387V32.9707H45.9387ZM52.4993 34.6758V35.6758H53.4993V34.6758H52.4993ZM50.8118 34.6758V33.6758H49.8118V34.6758H50.8118ZM50.8118 35.8184H49.8118V36.8184H50.8118V35.8184ZM52.7922 35.8184H53.7922V34.8184H52.7922V35.8184ZM52.7922 36.5244V37.5244H53.7922V36.5244H52.7922ZM49.9329 36.5244H48.9329V37.5244H49.9329V36.5244ZM49.9329 32.2588V31.2588H48.9329V32.2588H49.9329ZM52.7864 32.2588H53.7864V31.2588H52.7864V32.2588ZM52.7864 32.9707V33.9707H53.7864V32.9707H52.7864ZM50.8118 32.9707V31.9707H49.8118V32.9707H50.8118ZM50.8118 33.9873H49.8118V34.9873H50.8118V33.9873ZM52.4993 33.9873H53.4993V32.9873H52.4993V33.9873ZM52.4993 33.6758H50.8118V35.6758H52.4993V33.6758ZM49.8118 34.6758V35.8184H51.8118V34.6758H49.8118ZM50.8118 36.8184H52.7922V34.8184H50.8118V36.8184ZM51.7922 35.8184V36.5244H53.7922V35.8184H51.7922ZM52.7922 35.5244H49.9329V37.5244H52.7922V35.5244ZM50.9329 36.5244V32.2588H48.9329V36.5244H50.9329ZM49.9329 33.2588H52.7864V31.2588H49.9329V33.2588ZM51.7864 32.2588V32.9707H53.7864V32.2588H51.7864ZM52.7864 31.9707H50.8118V33.9707H52.7864V31.9707ZM49.8118 32.9707V33.9873H51.8118V32.9707H49.8118ZM50.8118 34.9873H52.4993V32.9873H50.8118V34.9873ZM51.4993 33.9873V34.6758H53.4993V33.9873H51.4993ZM56.5774 32.9707V33.9707H57.5774V32.9707H56.5774ZM55.2708 32.9707V31.9707H54.2708V32.9707H55.2708ZM55.2708 36.5244V37.5244H56.2708V36.5244H55.2708ZM54.3918 36.5244H53.3918V37.5244H54.3918V36.5244ZM54.3918 32.9707H55.3918V31.9707H54.3918V32.9707ZM53.1028 32.9707H52.1028V33.9707H53.1028V32.9707ZM53.1028 32.2588V31.2588H52.1028V32.2588H53.1028ZM56.5774 32.2588H57.5774V31.2588H56.5774V32.2588ZM56.5774 31.9707H55.2708V33.9707H56.5774V31.9707ZM54.2708 32.9707V36.5244H56.2708V32.9707H54.2708ZM55.2708 35.5244H54.3918V37.5244H55.2708V35.5244ZM55.3918 36.5244V32.9707H53.3918V36.5244H55.3918ZM54.3918 31.9707H53.1028V33.9707H54.3918V31.9707ZM54.1028 32.9707V32.2588H52.1028V32.9707H54.1028ZM53.1028 33.2588H56.5774V31.2588H53.1028V33.2588ZM55.5774 32.2588V32.9707H57.5774V32.2588H55.5774ZM59.6477 34.6758V35.6758H60.6477V34.6758H59.6477ZM57.9602 34.6758V33.6758H56.9602V34.6758H57.9602ZM57.9602 35.8184H56.9602V36.8184H57.9602V35.8184ZM59.9407 35.8184H60.9407V34.8184H59.9407V35.8184ZM59.9407 36.5244V37.5244H60.9407V36.5244H59.9407ZM57.0813 36.5244H56.0813V37.5244H57.0813V36.5244ZM57.0813 32.2588V31.2588H56.0813V32.2588H57.0813ZM59.9348 32.2588H60.9348V31.2588H59.9348V32.2588ZM59.9348 32.9707V33.9707H60.9348V32.9707H59.9348ZM57.9602 32.9707V31.9707H56.9602V32.9707H57.9602ZM57.9602 33.9873H56.9602V34.9873H57.9602V33.9873ZM59.6477 33.9873H60.6477V32.9873H59.6477V33.9873ZM59.6477 33.6758H57.9602V35.6758H59.6477V33.6758ZM56.9602 34.6758V35.8184H58.9602V34.6758H56.9602ZM57.9602 36.8184H59.9407V34.8184H57.9602V36.8184ZM58.9407 35.8184V36.5244H60.9407V35.8184H58.9407ZM59.9407 35.5244H57.0813V37.5244H59.9407V35.5244ZM58.0813 36.5244V32.2588H56.0813V36.5244H58.0813ZM57.0813 33.2588H59.9348V31.2588H57.0813V33.2588ZM58.9348 32.2588V32.9707H60.9348V32.2588H58.9348ZM59.9348 31.9707H57.9602V33.9707H59.9348V31.9707ZM56.9602 32.9707V33.9873H58.9602V32.9707H56.9602ZM57.9602 34.9873H59.6477V32.9873H57.9602V34.9873ZM58.6477 33.9873V34.6758H60.6477V33.9873H58.6477ZM62.0354 34.9629L62.9254 34.507L62.6467 33.9629H62.0354V34.9629ZM61.3352 34.9629V33.9629H60.3352V34.9629H61.3352ZM61.3352 36.5244V37.5244H62.3352V36.5244H61.3352ZM60.4563 36.5244H59.4563V37.5244H60.4563V36.5244ZM60.4563 32.2588V31.2588H59.4563V32.2588H60.4563ZM63.427 34.2773L62.5886 33.7324L62.5872 33.7344L63.427 34.2773ZM62.8557 34.7402L62.4451 33.8284L61.4732 34.2661L61.9719 35.2081L62.8557 34.7402ZM63.7786 36.4834H64.7786V36.235L64.6624 36.0155L63.7786 36.4834ZM63.7786 36.5244V37.5244H64.7786V36.5244H63.7786ZM62.8352 36.5244L61.9452 36.9803L62.2239 37.5244H62.8352V36.5244ZM61.3352 34.251H60.3352V35.251H61.3352V34.251ZM62.5569 34.084L63.2337 34.8202L63.24 34.8143L62.5569 34.084ZM62.5657 33.1436L61.8525 33.8446L61.8586 33.8507L62.5657 33.1436ZM61.3352 32.9707V31.9707H60.3352V32.9707H61.3352ZM62.0354 33.9629H61.3352V35.9629H62.0354V33.9629ZM60.3352 34.9629V36.5244H62.3352V34.9629H60.3352ZM61.3352 35.5244H60.4563V37.5244H61.3352V35.5244ZM61.4563 36.5244V32.2588H59.4563V36.5244H61.4563ZM60.4563 33.2588H62.0413V31.2588H60.4563V33.2588ZM62.0413 33.2588C62.4099 33.2588 62.5404 33.3421 62.5725 33.3684L63.842 31.823C63.3273 31.4001 62.6804 31.2588 62.0413 31.2588V33.2588ZM62.5725 33.3684C62.589 33.382 62.5928 33.3893 62.5965 33.3978C62.6019 33.4105 62.6174 33.4538 62.6174 33.5479H64.6174C64.6174 32.8917 64.3849 32.2689 63.842 31.823L62.5725 33.3684ZM62.6174 33.5479C62.6174 33.6212 62.6094 33.6686 62.6022 33.6959C62.5955 33.7219 62.5892 33.7314 62.5886 33.7324L64.2654 34.8223C64.5213 34.4286 64.6174 33.9841 64.6174 33.5479H62.6174ZM62.5872 33.7344C62.5856 33.7369 62.5794 33.7461 62.5609 33.7611C62.5414 33.7769 62.5056 33.8012 62.4451 33.8284L63.2664 35.652C63.6591 35.4751 64.0164 35.2076 64.2668 34.8202L62.5872 33.7344ZM61.9719 35.2081L62.8948 36.9513L64.6624 36.0155L63.7395 34.2723L61.9719 35.2081ZM62.7786 36.4834V36.5244H64.7786V36.4834H62.7786ZM63.7786 35.5244H62.8352V37.5244H63.7786V35.5244ZM63.7252 36.0685L62.9254 34.507L61.1454 35.4188L61.9452 36.9803L63.7252 36.0685ZM61.3352 35.251H62.0442V33.251H61.3352V35.251ZM62.0442 35.251C62.4284 35.251 62.8726 35.1521 63.2337 34.8202L61.8801 33.3478C61.9346 33.2977 61.9901 33.2708 62.0282 33.2584C62.0625 33.2472 62.0724 33.251 62.0442 33.251V35.251ZM63.24 34.8143C63.6014 34.4762 63.7385 34.0353 63.7385 33.6182H61.7385C61.7385 33.6149 61.7391 33.5766 61.7614 33.5193C61.7852 33.4583 61.8245 33.3998 61.8737 33.3537L63.24 34.8143ZM63.7385 33.6182C63.7385 33.2177 63.6175 32.7812 63.2728 32.4364L61.8586 33.8507C61.8095 33.8016 61.7751 33.7442 61.7557 33.6908C61.7376 33.6412 61.7385 33.6122 61.7385 33.6182H63.7385ZM63.2788 32.4425C62.9054 32.0627 62.4216 31.9707 62.0413 31.9707V33.9707C62.0817 33.9707 62.0742 33.9761 62.0366 33.9637C61.9939 33.9496 61.9222 33.9155 61.8525 33.8446L63.2788 32.4425ZM62.0413 31.9707H61.3352V33.9707H62.0413V31.9707ZM60.3352 32.9707V34.251H62.3352V32.9707H60.3352ZM66.3245 35.0244L65.716 35.8181L65.7245 35.8244L66.3245 35.0244ZM65.6917 34.7432L65.3809 35.6937L65.3864 35.6954L65.6917 34.7432ZM64.968 34.4502L64.4926 35.33L64.4939 35.3307L64.968 34.4502ZM64.4348 32.7773L63.6234 32.1928L63.6223 32.1944L64.4348 32.7773ZM64.9944 32.3525L64.6103 31.4292L64.6077 31.4303L64.9944 32.3525ZM66.6292 32.3672L66.2058 33.2732L66.212 33.276L66.6292 32.3672ZM67.1829 32.833L66.3446 33.3783L66.3483 33.384L67.1829 32.833ZM67.3821 33.5186V34.5186H68.3821V33.5186H67.3821ZM66.5032 33.5186H65.5032V34.5186H66.5032V33.5186ZM66.3186 33.0645L65.6542 33.8119L65.6609 33.8178L66.3186 33.0645ZM65.2991 33.0381L65.9012 33.8366L65.9094 33.8302L65.2991 33.0381ZM65.3284 33.7441L64.7683 34.5726L64.7737 34.5762L65.3284 33.7441ZM65.9465 34.0078L65.6573 34.9651L65.6585 34.9654L65.9465 34.0078ZM66.9631 36.2695L67.5622 37.0702L67.5658 37.0675L66.9631 36.2695ZM64.9387 36.4043L64.5289 37.3165L64.5344 37.3189L64.9387 36.4043ZM64.3206 35.9092L63.4909 36.4675L63.4945 36.4728L64.3206 35.9092ZM64.1096 35.1826V34.1826H63.1096V35.1826H64.1096ZM64.9915 35.1826H65.9915V34.1826H64.9915V35.1826ZM66.3245 35.7627L66.907 36.5756L66.9158 36.5691L66.3245 35.7627ZM67.5002 35.4053C67.5002 34.9725 67.3295 34.5282 66.9245 34.2244L65.7245 35.8244C65.657 35.7738 65.5919 35.6989 65.5483 35.6046C65.5067 35.5144 65.5002 35.4402 65.5002 35.4053H67.5002ZM66.9329 34.2308C66.6685 34.0281 66.3136 33.8924 65.9969 33.7909L65.3864 35.6954C65.5165 35.7371 65.6095 35.7726 65.6722 35.8005C65.7412 35.8312 65.7446 35.8399 65.716 35.818L66.9329 34.2308ZM66.0024 33.7927C65.7254 33.7021 65.5464 33.6259 65.4421 33.5697L64.4939 35.3307C64.7451 35.4659 65.0485 35.585 65.3809 35.6937L66.0024 33.7927ZM65.4434 33.5704C65.3019 33.4939 65.2566 33.4367 65.2473 33.4233C65.2449 33.4197 65.2439 33.4177 65.2437 33.4173C65.2435 33.417 65.2436 33.417 65.2436 33.417C65.2435 33.4169 65.2431 33.4155 65.2426 33.4121C65.2421 33.4087 65.2415 33.4024 65.2415 33.3926H63.2415C63.2415 34.2976 63.7775 34.9435 64.4926 35.33L65.4434 33.5704ZM65.2415 33.3926C65.2415 33.3817 65.2422 33.3746 65.2428 33.3709C65.2431 33.3689 65.2433 33.3676 65.2435 33.3669C65.2437 33.3662 65.2438 33.3658 65.2438 33.3657C65.2438 33.3657 65.2438 33.3658 65.2437 33.3659C65.2437 33.366 65.2437 33.3661 65.2437 33.3659C65.2438 33.3657 65.2448 33.3639 65.2474 33.3603L63.6223 32.1944C63.3661 32.5515 63.2415 32.9624 63.2415 33.3926H65.2415ZM65.2462 33.3619C65.2519 33.354 65.2791 33.3175 65.3811 33.2747L64.6077 31.4303C64.2253 31.5907 63.8795 31.8374 63.6234 32.1928L65.2462 33.3619ZM65.3785 33.2758C65.4845 33.2317 65.6248 33.2002 65.8147 33.2002V31.2002C65.3991 31.2002 64.9925 31.2702 64.6103 31.4292L65.3785 33.2758ZM65.8147 33.2002C65.9962 33.2002 66.1195 33.2328 66.2059 33.2732L67.0524 31.4612C66.6622 31.2789 66.2426 31.2002 65.8147 31.2002V33.2002ZM66.212 33.276C66.2948 33.3141 66.3264 33.3502 66.3446 33.3783L68.0211 32.2877C67.7776 31.9134 67.44 31.6391 67.0463 31.4584L66.212 33.276ZM66.3483 33.384C66.3665 33.4114 66.3821 33.446 66.3821 33.5186H68.3821C68.3821 33.0794 68.2649 32.6569 68.0174 32.2821L66.3483 33.384ZM67.3821 32.5186H66.5032V34.5186H67.3821V32.5186ZM67.5032 33.5186C67.5032 33.0964 67.3595 32.6457 66.9763 32.3111L65.6609 33.8178C65.6046 33.7686 65.5587 33.7042 65.5306 33.6351C65.5043 33.5703 65.5032 33.5253 65.5032 33.5186H67.5032ZM66.983 32.317C66.6208 31.9951 66.1804 31.9004 65.8 31.9004V33.9004C65.8315 33.9004 65.8255 33.9045 65.795 33.8948C65.7611 33.8841 65.708 33.8597 65.6542 33.8119L66.983 32.317ZM65.8 31.9004C65.4563 31.9004 65.0438 31.9724 64.6887 32.2459L65.9094 33.8302C65.8518 33.8746 65.8016 33.8928 65.7787 33.8991C65.7581 33.9047 65.7616 33.9004 65.8 33.9004V31.9004ZM64.697 32.2397C64.3288 32.5173 64.1204 32.9313 64.1204 33.3955H66.1204C66.1204 33.4586 66.1067 33.5475 66.0595 33.642C66.0123 33.7364 65.9499 33.7998 65.9012 33.8365L64.697 32.2397ZM64.1204 33.3955C64.1204 33.9378 64.4197 34.3369 64.7683 34.5726L65.8884 32.9157C65.9125 32.932 65.975 32.9802 66.0311 33.0743C66.0913 33.1751 66.1204 33.2891 66.1204 33.3955H64.1204ZM64.7737 34.5762C65.0329 34.749 65.3462 34.8711 65.6573 34.9651L66.2358 33.0506C66.0039 32.9805 65.9051 32.9268 65.8831 32.9121L64.7737 34.5762ZM65.6585 34.9654C66.0914 35.0956 66.2792 35.2229 66.3414 35.2836L67.7372 33.8512C67.3424 33.4665 66.8017 33.2208 66.2346 33.0502L65.6585 34.9654ZM66.3414 35.2836C66.3644 35.3059 66.3698 35.3186 66.3718 35.3233C66.3741 35.3288 66.3821 35.3501 66.3821 35.3994H68.3821C68.3821 34.81 68.1675 34.2704 67.7372 33.8512L66.3414 35.2836ZM66.3821 35.3994C66.3821 35.4286 66.3793 35.4461 66.3776 35.4542C66.376 35.4619 66.3749 35.4629 66.3763 35.46C66.3778 35.4569 66.3794 35.4549 66.3793 35.455C66.379 35.4554 66.374 35.4613 66.3605 35.4715L67.5658 37.0675C68.1109 36.6559 68.3821 36.0621 68.3821 35.3994H66.3821ZM66.364 35.4689C66.3098 35.5095 66.1676 35.583 65.8352 35.583V37.583C66.4482 37.583 67.0579 37.4476 67.5622 37.0702L66.364 35.4689ZM65.8352 35.583C65.6305 35.583 65.4714 35.5464 65.343 35.4897L64.5344 37.3189C64.9451 37.5004 65.3837 37.583 65.8352 37.583V35.583ZM65.3485 35.4921C65.2186 35.4337 65.1689 35.3782 65.1466 35.3456L63.4945 36.4728C63.7574 36.8581 64.1198 37.1327 64.5289 37.3165L65.3485 35.4921ZM65.1502 35.3509C65.131 35.3223 65.1096 35.2785 65.1096 35.1826H63.1096C63.1096 35.6375 63.2289 36.0781 63.4909 36.4675L65.1502 35.3509ZM64.1096 36.1826H64.9915V34.1826H64.1096V36.1826ZM63.9915 35.1826C63.9915 35.6235 64.1317 36.1201 64.5606 36.4791C64.9555 36.8095 65.4389 36.8887 65.8352 36.8887V34.8887C65.761 34.8887 65.732 34.8806 65.7347 34.8813C65.74 34.8828 65.7864 34.8969 65.8441 34.9452C65.9057 34.9968 65.9493 35.0614 65.9732 35.1215C65.9947 35.1754 65.9915 35.2028 65.9915 35.1826H63.9915ZM65.8352 36.8887C66.1631 36.8887 66.5591 36.8248 66.907 36.5755L65.7419 34.9499C65.7992 34.9088 65.8465 34.8935 65.8649 34.8888C65.8816 34.8845 65.8749 34.8887 65.8352 34.8887V36.8887ZM66.9158 36.5691C67.3041 36.2843 67.5002 35.8581 67.5002 35.4053H65.5002C65.5002 35.351 65.5114 35.2643 65.5589 35.1676C65.6073 35.0692 65.6743 34.9994 65.7331 34.9563L66.9158 36.5691Z" fill="#AFB1B8"/>
</svg>
